<svg xmlns="http://www.w3.org/2000/svg" viewBox="0 0 253.525 90.667" xml:space="preserve"><g xmlns="http://www.w3.org/2000/svg"><path style="fill:#5c2f10" d="M195.406 57.102c-1.748-.534-2.542-.703-4.173.067a.2.2 0 0 0-.079.107c-1.357.533-2.733 1.35-.936 1.988 1.592.564 3.743.543 5.449.568 1.123.017 3.026.084 3.903-.666.09-.075.189-.195.132-.309-.527-1.047-3.156-1.406-4.296-1.755"/><path style="fill:#7d7e81" d="M198.33 59.235q-.551.082-1.108.113c-1.799.154-3.626-.041-5.403-.26-.153-.02-2.826-.291-1.435-1.15.443-.273.929-.502 1.411-.731 1.484-.34 2.419.026 3.932.496q.941.291 1.873.602 1.003.073.73.93"/><path style="fill:#5c2f10" d="M244.884 76.737c-2.797-.003-10.941-9.097-21.063-20.079-2.333-2.531-4.771-5.077-5.758-6.054-2.271-2.245-2.515-3.235-2.51-4.823.002-.81.468-2.383.612-2.559 6.604-10.876 29.869-24.779 30.912-25.394.814-.518 1.385-.753 1.828-.753.389 0 .701.186.857.51 1.137 2.35-12.496 19.086-18.412 26.571 1.674 3.027 12.924 23.109 14.369 30.679.156.813.453 1.482.148 1.852-.149.18-.983.05-.983.05"/><path style="fill:#606264" d="M245.179 75.536c-1.496-7.821-14.264-30.813-14.395-31.044l-.191-.345.246-.31c8.641-10.914 17.408-23.102 17.838-25.523-.184.066-.492.211-.983.521-.26.153-23.446 13.882-30.967 24.382-.546 1.15-.786 2.382-.293 3.74.264.729.631 1.393 1.045 2.026.337.394.717.813 1.18 1.269 1.007.996 2.856 3.004 5.2 5.546 6.121 6.642 18.857 20.46 21.369 20.463l.016-.001c-.016-.028.029-.227-.065-.724"/><path style="fill:#606264" d="M247.744 20.399c-6.326 8.033-14.123 14.9-19.79 23.47.599 1.018 1.29 2.002 1.737 2.847.82 1.547 1.621 3.103 2.48 4.631 1.676 2.983 3.318 5.989 5.094 8.915 2.445 4.029 4.693 8.174 7.059 12.249-3.258-9.506-13.422-27.812-13.539-28.018l-.191-.345.246-.31c7.142-9.025 14.37-18.914 16.904-23.439"/><path style="fill:#7d7e81" d="M224.596 36.891c6.986-5.443 14.113-10.76 20.755-16.627-6.102 3.787-22.518 14.43-28.624 22.954-.396.836-.628 1.716-.538 2.654 2.069-3.504 5.244-6.517 8.407-8.981"/><path style="fill:#5c2f10" d="M126.497 17.692c.57-4.315 2.534-8.688 1.372-13.062-1.152-4.338-6.61-.273-8.46 1.08-3.949 2.885-7.629 6.179-11.205 9.506-3.425 3.188-6.765 6.641-9.225 10.644-.055.088-.04.152.004.183-.661 1.467-.564 2.866 1.585 3.821 1.831.813 4.287.788 6.244 1.025 2.283.275 4.585.413 6.881.529 3.716.189 7.988-.017 11.013-2.448 1.303-1.047 1.804-2.528 1.9-4.141.144-2.408-.432-4.692-.109-7.137"/><path style="fill:#606264" d="M125.316 27.352c-.632 1.211-1.98 1.837-3.171 2.313-1.758.701-3.705.864-5.577.934-3.78.14-7.654-.308-11.393-.822-1.403-.192-2.784-.289-4.135-.749-2.274-.775-1.822-2.555-.987-4.153.429-.558.854-1.117 1.298-1.665 1.287-1.597 2.689-3.105 4.122-4.571 2.671-2.731 5.566-5.256 8.466-7.743 3.074-2.635 6.297-5.545 10.048-7.166 5.188-2.243 2.958 8.249 2.462 10.281-.753 3.085-1.065 6.086-.76 9.242.137 1.401.32 2.773-.373 4.099"/><path style="fill:#606264" d="M111.293 14.001c2.914-2.596 5.817-5.177 8.95-7.506 1.439-1.069 2.918-2.274 4.55-3.022a4 4 0 0 0-.806.256c-3.751 1.621-6.974 4.531-10.048 7.166-2.899 2.487-5.795 5.012-8.466 7.743-1.433 1.467-2.835 2.975-4.122 4.571-.443.548-.869 1.107-1.298 1.665-.313.601-.574 1.227-.654 1.815a96 96 0 0 1 11.894-12.688m15.547-9.517c.092 1.079-.076 2.255-.198 3.032-.603 3.862-2.173 7.858-3.861 11.372-1.734 3.607-5.634 4.941-9.112 6.355-2.922 1.188-6.713 2.351-9.391 4.418q.448.054.898.114c3.738.515 7.612.962 11.393.822 1.872-.069 3.819-.232 5.577-.934 1.19-.477 2.539-1.103 3.171-2.313.692-1.325.51-2.697.373-4.1-.306-3.156.007-6.157.76-9.242.351-1.443 1.569-7.141.39-9.524"/><path style="fill:#5c2f10" d="M36.082 55.489c-1.046-.475-2.351-.146-3.433-.497-.299-.098-.611.386-.517.638.024.066.047.096.114.125.009.003.02-.001.029.001.434.806.832 1.624 1.309 2.408.188.313 1.04 1.886 1.512 1.822.537-.071.579-.602.626-1.052.112-1.081.343-2.137.48-3.213.015-.11-.02-.187-.12-.232"/><path style="fill:#fff" d="M35.33 57.699c-.063.433.008 1.152-.118 1.649-.217-.147-.447-.503-.554-.629-.366-.428-.697-.887-1.031-1.339-.413-.556-.76-1.131-1.238-1.627 1.012.274 2.175.046 3.156.382-.057.524-.14 1.044-.215 1.564"/><path style="fill:#5c2f10" d="M40.172 56.349c-1.046-.475-2.351-.146-3.432-.499-.3-.096-.612.388-.518.639.025.066.047.097.114.126.009.003.02-.002.03.001.433.805.831 1.624 1.308 2.407.189.313 1.04 1.886 1.513 1.822.536-.072.578-.601.626-1.051.111-1.082.342-2.137.479-3.214.015-.109-.021-.186-.12-.231"/><path style="fill:#fff" d="M39.42 58.558c-.063.432.008 1.152-.118 1.65-.217-.148-.446-.503-.553-.629-.366-.428-.698-.887-1.032-1.339-.412-.556-.76-1.131-1.237-1.628 1.011.275 2.174.046 3.155.382-.056.525-.14 1.043-.215 1.564"/><path style="fill:#5c2f10" d="M44.48 57.123c-1.046-.475-2.35-.146-3.432-.497-.298-.098-.611.387-.517.638.025.066.046.097.114.125.009.004.02-.001.029.001.434.806.831 1.625 1.308 2.407.19.314 1.04 1.887 1.513 1.823.537-.071.578-.601.626-1.052.111-1.08.342-2.137.48-3.213.015-.109-.02-.187-.121-.232"/><path style="fill:#fff" d="M43.729 59.333c-.063.433.009 1.153-.116 1.649-.219-.147-.448-.503-.554-.629-.366-.427-.697-.886-1.032-1.338-.413-.557-.76-1.131-1.237-1.628 1.01.274 2.174.046 3.155.382-.057.524-.14 1.043-.216 1.564"/><path style="fill:#5c2f10" d="M48.571 57.632c-1.046-.475-2.35-.146-3.432-.498-.298-.097-.611.387-.517.639.024.066.046.096.114.125.009.003.019-.002.029.001.434.805.831 1.624 1.308 2.407.189.313 1.04 1.886 1.513 1.822.537-.071.578-.601.626-1.051.111-1.081.342-2.137.481-3.214.014-.109-.021-.186-.122-.231"/><path style="fill:#fff" d="M47.819 59.842c-.063.432.009 1.152-.116 1.649-.219-.147-.448-.503-.554-.629-.366-.428-.697-.887-1.032-1.339-.413-.556-.76-1.131-1.237-1.628 1.01.275 2.174.047 3.156.383-.057.524-.14 1.043-.217 1.564"/><path style="fill:#5c2f10" d="M52.804 58.49c-1.046-.475-2.35-.146-3.432-.498-.298-.097-.611.387-.518.639.025.066.048.097.115.126.009.002.02-.002.029.001.435.804.831 1.624 1.308 2.407.189.313 1.04 1.886 1.513 1.822.537-.072.579-.601.626-1.051.111-1.082.342-2.138.48-3.214.013-.109-.021-.186-.121-.232"/><path style="fill:#fff" d="M52.052 60.7c-.063.432.009 1.152-.117 1.649-.218-.147-.447-.502-.553-.628-.366-.428-.698-.887-1.032-1.339-.413-.556-.76-1.132-1.237-1.628 1.011.274 2.174.046 3.155.382-.057.525-.14 1.044-.216 1.564"/><path style="fill:#5c2f10" d="M56.544 58.491c-1.046-.475-2.351-.146-3.433-.498-.299-.097-.611.387-.517.639.025.066.047.096.114.126.009.002.02-.002.03 0 .433.805.831 1.625 1.308 2.407.189.313 1.039 1.887 1.513 1.823.536-.072.578-.601.625-1.051.112-1.082.343-2.138.479-3.214.016-.109-.019-.186-.119-.232"/><path style="fill:#fff" d="M55.791 60.701c-.063.432.008 1.152-.117 1.648-.217-.146-.446-.501-.554-.627-.365-.428-.697-.887-1.031-1.339-.413-.556-.76-1.132-1.237-1.628 1.011.273 2.174.046 3.155.382-.057.525-.14 1.044-.216 1.564"/><path style="fill:#5c2f10" d="M60.181 58.988c-1.046-.475-2.351-.146-3.432-.498-.299-.097-.611.387-.518.639.025.066.047.096.114.125.009.003.02-.002.03.001.434.805.831 1.624 1.308 2.407.189.314 1.04 1.886 1.513 1.822.536-.071.578-.601.626-1.051.111-1.082.342-2.137.479-3.214.015-.109-.021-.186-.12-.231"/><path style="fill:#fff" d="M59.429 61.198c-.063.432.009 1.151-.117 1.649-.218-.148-.447-.503-.554-.629-.366-.428-.697-.887-1.032-1.339-.412-.556-.76-1.131-1.237-1.628 1.011.275 2.174.046 3.156.383-.057.524-.141 1.044-.216 1.564"/><path style="fill:#5c2f10" d="M92.474 76.017h-.002c-27.008 0-39.391-3.372-48.876-6.532-1.493-.497-3.003-1.15-2.883-2.226.199-1.777 5.13-2.546 16.848-3.699 2.442-.241 4.791-.472 6.195-.687-2.732-.765-9.566-1.954-14.809-2.865-5.734-.998-11.151-1.939-13.886-2.658-5.104-1.341-12.355-4.186-20.034-7.199-2.828-1.109-5.696-2.235-8.508-3.304-2.732-1.039-2.924-2.575-2.796-3.397.934-5.973 25.77-16.103 90.358-19.531 6.031-.32 12.143-.483 18.168-.483 56.104 0 93.381 14.022 93.752 14.164.462.16 11.736 4.104 13.869 5.446.832.525.939 1.084.88 1.46-.173 1.118-2.073 1.741-2.791 1.938-11.904 5.884-24.341 12.186-41.282 17.405-14.638 4.511-37.256 10.169-61.881 11.51-8.022.436-15.533.658-22.322.658"/><path style="fill:#7d7e81" d="M41.916 67.375c.105.124.524.479 2.054.988 9.396 3.132 21.671 6.473 48.502 6.473h.002c6.769 0 14.266-.087 22.259-.658 66.076-4.725 102.837-28.852 102.837-28.852.936-.246 1.929-.739 2.013-1.001-.009 0-.071-.109-.341-.279-2.02-1.273-13.529-5.297-13.645-5.338-.386-.146-37.477-14.091-93.347-14.091-6.005 0-12.096.161-18.105.48C28.352 28.589 5.601 39.092 4.891 43.632c-.162 1.039 1.024 1.722 2.049 2.11 2.814 1.07 5.688 2.198 8.519 3.309 7.646 3.001 14.865 5.833 19.902 7.156 2.687.706 8.33 1.687 13.787 2.637 15.133 2.633 16.695 3.121 16.803 4.071.015.126.02.558-.536.791-.792.333-3.326.594-7.739 1.028-4.835.476-14.814 1.459-15.76 2.641"/><path style="fill:#606264" d="M15.856 38.842c5.173-1.306 10.375-2.488 15.581-3.657a684 684 0 0 1 32.331-6.423c7.46-1.298 14.888-2.435 22.382-3.193-50.685 3.3-73.406 10.89-79.511 15.767q.645-.17 1.289-.347c2.638-.732 5.272-1.477 7.928-2.147"/><path style="fill:#fff" d="M219.342 44.115c-10.448 5.745-22.829 7.138-34.502 8.531-15.435 1.843-30.767 5.276-46.331 5.876-6.066.235-12.13.042-18.146-.825-6.099-.882-12.108-2.231-18.146-3.448-6.24-1.257-12.59-2.458-18.97-2.633-6.278-.171-12.503.627-18.766.884-12.146.499-23.676-2.325-35.544-4.382-7.933-1.375-16.073-2.625-23.669-5.373q-.313.473-.378.887c-.162 1.039 1.024 1.722 2.049 2.11 2.814 1.07 5.688 2.198 8.519 3.309 7.646 3.001 14.865 5.833 19.902 7.156 2.687.706 8.33 1.687 13.787 2.637 15.133 2.633 16.695 3.121 16.803 4.071.015.126.02.558-.536.791-.792.333-3.326.594-7.739 1.028-4.835.476-14.813 1.459-15.76 2.641.105.124.524.479 2.054.988 9.396 3.132 21.671 6.473 48.502 6.473h.002c6.769 0 14.266-.087 22.259-.658 66.076-4.725 102.837-28.852 102.837-28.852.936-.246 1.929-.739 2.013-1.001-.008-.001-.062-.083-.24-.21"/><path style="fill:#5c2f10" d="M48.078 44.002c0 2.359-1.435 4.27-3.204 4.27-1.767 0-3.201-1.911-3.201-4.27 0-2.361 1.434-4.275 3.201-4.275 1.769 0 3.204 1.914 3.204 4.275"/><path style="fill:#fff" d="M44.867 42.335c0 .72-.438 1.3-.976 1.3-.535 0-.971-.58-.971-1.3 0-.716.436-1.3.971-1.3.538 0 .976.584.976 1.3"/><path style="fill:#5c2f10" d="M77.299 61.686c.259 1.401.602 2.684 1.255 3.778.345.345.71.672 1.104.96.407.299.843.709 1.313 1.02.003-.024.006-.049-.007-.068-.454-.673-.997-1.238-1.49-1.887-.78-1.026-1.015-2.342-1.276-3.574-.451-2.126-1.375-12.254-1.184-15.158.064-.962.008-1.986.349-2.905a8 8 0 0 1 1.134-.687c.004-.001.008-.008.012-.009-.564.025-1.122.134-1.68.236-.568.476-1.092 1.143-1.189 1.419-.753 2.129-.282 4.431-.019 6.603.158 1.307.229 2.62.436 3.921.217 1.356.502 2.701.782 4.045.158.767.316 1.535.46 2.306m5.93.027c.145 1.388.363 2.661.846 3.764.265.354.549.69.858.988.32.31.657.732 1.027 1.055.003-.022.008-.047-.003-.067-.34-.679-.757-1.257-1.13-1.915-.589-1.039-.718-2.343-.871-3.563-.268-2.106-.531-12.099-.232-14.944.1-.944.103-1.953.427-2.842a6 6 0 0 1 .965-.628l.008-.009c-.463.002-.925.085-1.388.164-.489.445-.951 1.078-1.045 1.345-.722 2.062-.448 4.344-.337 6.489.066 1.29.06 2.583.167 3.871.11 1.341.279 2.674.442 4.007.094.76.186 1.521.266 2.285m4.895.518c.13 1.259.329 2.413.766 3.414.241.32.499.625.779.896.29.281.597.664.932.957.003-.021.007-.043-.003-.061-.308-.616-.687-1.14-1.024-1.736-.534-.943-.651-2.126-.79-3.232-.242-1.91-.481-10.972-.211-13.553.09-.856.094-1.772.388-2.578.254-.207.547-.39.873-.568l.009-.008c-.421.002-.84.076-1.26.148-.442.403-.861.978-.945 1.22-.655 1.87-.407 3.939-.307 5.885.061 1.17.054 2.343.151 3.511.1 1.217.253 2.425.401 3.634q.13 1.034.241 2.071m4.48.438c.106 1.037.271 1.99.631 2.815.198.265.411.517.643.739.24.232.492.548.768.789.003-.017.007-.035-.001-.05-.254-.508-.566-.941-.846-1.434-.439-.777-.537-1.752-.651-2.664-.2-1.577-.397-9.051-.174-11.179.074-.705.077-1.46.319-2.125.21-.172.45-.323.721-.47l.007-.007c-.347.002-.692.064-1.039.122-.365.333-.71.808-.78 1.007-.539 1.542-.336 3.249-.252 4.853.049.965.044 1.932.125 2.896.081 1.003.208 2.001.33 2.996.069.572.138 1.14.199 1.712m3.882 1.1c.084.817.213 1.567.496 2.218.157.209.324.407.508.581.188.185.387.433.604.623.001-.013.005-.028-.002-.04-.199-.4-.446-.741-.665-1.129-.348-.611-.424-1.38-.515-2.099-.157-1.242-.313-7.13-.137-8.807.06-.557.062-1.15.254-1.675.164-.135.353-.253.566-.37l.005-.005c-.272.001-.546.05-.818.097-.287.262-.56.636-.615.792-.424 1.216-.265 2.56-.199 3.824.039.76.036 1.521.1 2.28.064.792.163 1.577.261 2.362q.084.672.157 1.348"/><path style="fill:#595b5d" d="M46.118 48.881c2.839.509 5.443 1.572 7.937 2.916-.512-.446-.989-.823-1.16-.966-2.234-1.859-5.025-3.419-7.992-3.614-2.63-.175-5.585.378-7.921 1.794 3.026-.411 6.149-.663 9.136-.13"/><path style="opacity:.4;fill:#6d6e71" d="M219.241 44.045c-2.02-1.273-13.529-5.297-13.645-5.338-.352-.134-31.531-11.853-79.731-13.813 6.6.688 13.188 1.513 19.738 2.341 6.041.763 12.085 1.632 18.023 2.997 5.98 1.375 11.684 3.491 17.506 5.396 3.422 1.12 19.273 4.952 12.477 11.128-2.349 2.135-5.354 3.417-8.215 4.707-4.419 1.99-8.745 4.139-13.251 5.938-11.578 4.623-23.569 7.539-35.439 11.241-5.663 1.767-11.272 3.637-17.013 5.136 62.95-5.536 97.878-28.454 97.878-28.454.936-.246 1.929-.739 2.013-1.001-.009.001-.071-.108-.341-.278M72.479 73.052c-4.033-.468-8.083-1.006-12.079-1.725-2.479-.446-5.745-.972-7.396-3.104-.161-.208-.152-.601.174-.658 3.312-.593 6.535-1.584 9.816-2.319 2.007-.448 4.934-.728 6.347-2.43-2.838-1.574-6.171-2.035-9.289-2.804-3.401-.84-6.753-1.848-10.098-2.885-7.01-2.175-14.099-4.104-21.077-6.378-6.831-2.226-13.495-4.863-20.451-6.704-1.048-.277-2.367-.578-3.059-1.439q-.401.552-.476 1.026c-.162 1.039 1.024 1.722 2.049 2.11 2.814 1.07 5.688 2.198 8.519 3.309 7.646 3.001 14.865 5.833 19.902 7.156 2.687.706 8.33 1.687 13.787 2.637 15.133 2.633 16.695 3.121 16.803 4.071.015.126.02.558-.536.791-.792.333-3.326.594-7.739 1.028-4.835.476-14.813 1.459-15.76 2.641.105.124.524.479 2.054.988 8.639 2.879 19.719 5.933 42.294 6.406-4.593-.593-9.186-1.185-13.785-1.717"/><path style="fill:#5c2f10" d="M151.057 79.125c-4.968-2.78-10.369-4.785-14.994-8.16-3.089-2.254-6.101-4.551-9.719-5.883-2.066-.76-4.144-1.087-6.239-1.132 1.568.396 4.893 2.417 4.398 2.291-4.386-1.131-8.653.33-12.632 2.122-3.131 1.41-6.214 2.934-9.315 4.403-2.06.978-4.501 2.212-6.81 1.446a2.17 2.17 0 0 1-1.433-1.546c-1.337 2.52 2.888 4.121 4.84 4.837 5.73 2.102 11.561 3.904 17.544 5.124 6.093 1.242 12.293 2.003 18.471 2.692 5.328.595 11.393 1.885 16.643.274.985-.302 2.606-1.224 2.685-2.434.134-2.029-1.882-3.162-3.439-4.034"/><path style="fill:#7d7e81" d="M152.904 84.454c-1.333.948-3.325 1.005-4.897 1.085-6.075.313-12.399-.864-18.41-1.658-5.643-.747-11.271-1.648-16.8-3.011-2.855-.702-5.645-1.615-8.436-2.535-2.84-.935-5.774-1.816-8.396-3.275-4.36-2.429 4.582-5.944 6.386-6.614 4.198-1.561 8.575-2.57 12.966-3.463 5.399-.523 10.46.269 15.176 3.25 2.307 1.457 4.393 3.245 6.713 4.675a67 67 0 0 0 6.977 3.744 108 108 0 0 1 6.812 3.408c1.224.672 4.386 2.631 1.909 4.394"/><path style="fill:#5c2f10" d="M180.047 68.391c-.705-.642-1.632-.975-2.506-1.329-1.65-.668-3.233-1.464-4.794-2.317-1.727-.944-3.168-1.518-4.908-1.349.206.155.38.337.468.571.174.461.047.958-.423 1.207-1.139.602-2.243 1.313-3.409 1.861-.985.465-4.543 2.334-5.551 1.07-.411-.516-.364-1.039-.091-1.531-.03.005-.058.019-.089.017-.732.362-1.361.803-1.493 1.316-.582 2.266 11.171 2.831 12.879 2.854 2.808.038 5.82-.07 8.533-.845.358-.102 2.206-.778 1.384-1.525"/><path style="fill:#7d7e81" d="M177.593 69.76q-.652.122-1.313.196c-1.97.261-3.978.304-5.962.272-4.055-.064-8.068-.808-11.977-1.853q-.266-1.17.689-1.458.72-.376 1.477-.674 1.19-.497 2.392-.962c1.63-.63 3.307-1.023 5-1.422 1.592.019 2.849.405 4.513 1.298a61 61 0 0 0 4.247 2.091c.938.414 1.861.759 2.753 1.279q-.457 1.285-1.819 1.233"/></g></svg>